<?xml version="1.0" encoding="utf-8"?>
<!-- Generator: Adobe Illustrator 25.0.0, SVG Export Plug-In . SVG Version: 6.00 Build 0)  -->
<svg version="1.1" id="Layer_1" xmlns="http://www.w3.org/2000/svg" xmlns:xlink="http://www.w3.org/1999/xlink" x="0px" y="0px"
	 viewBox="0 0 2834.65 2834.65" style="enable-background:new 0 0 2834.65 2834.65;" xml:space="preserve">
<style type="text/css">
	.st0{fill:#FFFFFF;}
</style>
<path class="st0" d="M1895.21,1454.43c-110.44,0-216.34,0-324.34,0c-1.13,7.5-3.12,14.6-3.13,21.71
	c-0.12,101.95-0.62,203.91,0.34,305.85c0.64,68.1,27.51,93.55,95.68,93.75c16.57,0.05,34.02-2.27,33.57,25.19
	c-161.2,0-322.06,0-493.83,0c12.6-11.96,18.75-19.94,26.82-24.65c4.87-2.84,12.71-0.59,19.22-0.64
	c65.04-0.51,90.27-24.7,90.99-90.69c1.04-95.43,2.69-190.94-0.03-286.3c-1.35-47.49,9.97-87.64,34.55-128.13
	c145.03-238.98,288.77-478.76,431.74-718.99c49.47-83.13,99.07-165.6,171.5-231.59c66.04-60.17,139.81-106.04,228.52-123.92
	c80.84-16.29,137.17,12.93,158.76,80.99c19.57,61.69-12.77,129.89-71.76,142.32c-19.66,4.14-45.7-1.42-63.03-12.01
	c-22.35-13.66-22.07-40.48-14.45-64.88c3.87-12.39,9.35-24.26,13.52-36.56c14.54-42.89-6.57-72.38-51.85-68.38
	c-22.09,1.95-44.72,8.99-65,18.32c-89.39,41.1-157.72,107.83-210.17,188.96c-100.6,155.61-197.87,313.39-295.86,470.68
	c-28.07,45.06-41.34,94.3-39.97,148.3c1.89,74.71,0.47,149.51,0.47,226.77c108.81,0,215.57,0,324.62,0
	c1.01-4.96,3.31-10.96,3.31-16.95c-0.1-97.61,0.36-195.23-1.13-292.82c-0.9-59.12-30.47-85.65-90.05-85.18
	c-29.19,0.23-29.19,0.23-39.47-24.03c162.71,0,324.16,0,485.61,0c1.43,2.33,2.86,4.65,4.29,6.98c-7.93,5.89-15.1,14.07-24,17.02
	c-8.77,2.91-19.31,0.08-29.05,0.51c-46.89,2.1-75.14,27.79-78.08,74.39c-2.32,36.75-1.55,73.72-1.56,110.58
	c-0.02,197.4-0.09,394.79,0.36,592.19c0.18,78.36,21.61,99.08,100.26,102.83c10.72,0.51,21.06,8.67,31.58,13.29
	c-1.14,3.65-2.28,7.3-3.42,10.96c-161.45,0-322.89,0-484.34,0c-1.34-3.14-2.68-6.28-4.02-9.42c11.11-5.13,22.07-14.31,33.36-14.74
	c77.02-2.92,98.53-22.71,99.23-99.64C1895.93,1670.31,1895.21,1564.1,1895.21,1454.43z"/>
<path class="st0" d="M1207.88,1531.79c-73.59,0-148.58,7.07-221.86-1.18c-395.31-44.53-523.35-472.19-325.8-752.37
	c137.11-194.46,376.46-266.49,609.36-182.45c24.43,8.82,48.37,19.18,73.16,26.78c40.26,12.33,63.5-0.61,79.53-39.25
	c4.07-9.8,14.34-17.03,21.76-25.43c2.65,1.83,5.31,3.67,7.96,5.5c0,105.68,0,211.35,0,328.18c-15.15-16.21-26.08-24.37-32.24-35.23
	c-12.8-22.56-22.8-46.68-34.42-69.93c-55.58-111.16-146.47-166.99-269.83-162.12c-123.97,4.9-211.02,70.89-256.07,184.33
	c-67.14,169.09-59.34,340.69,9.09,507c65.64,159.52,224.08,180.86,365.12,139.75c17.45-5.09,34.09-12.95,58.88-22.53
	c-18.74,33.1-32.96,61.32-49.97,87.75c-98.46,153.04-194.14,308.03-297.68,457.57c-68.35,98.72-164.23,166.28-284.12,193.03
	c-101.34,22.61-175.87-36.97-166.77-131.59c4.08-42.42,35.23-83.95,76.23-91.12c20.03-3.5,45.66,1.34,62.97,11.9
	c22.37,13.65,22.07,40.47,14.51,64.87c-3.84,12.4-9.24,24.31-13.41,36.62c-14.61,43.17,7.48,77.07,51.48,67.08
	c45.14-10.25,89.94-30.49,129.46-55.09c64.25-39.99,112.97-98,153.7-161.38c79.09-123.06,156.45-247.24,234.42-371.02
	C1206.11,1537.08,1207.78,1532.02,1207.88,1531.79z"/>
</svg>
